<svg version="1.1" viewBox="0.0 0.0 960.0 720.0" fill="none" stroke="none" stroke-linecap="square" stroke-miterlimit="10" xmlns:xlink="http://www.w3.org/1999/xlink" xmlns="http://www.w3.org/2000/svg"><clipPath id="p.0"><path d="m0 0l960.0 0l0 720.0l-960.0 0l0 -720.0z" clip-rule="nonzero"/></clipPath><g clip-path="url(#p.0)"><path fill="#000000" fill-opacity="0.0" d="m0 0l960.0 0l0 720.0l-960.0 0z" fill-rule="evenodd"/><path fill="#f4cccc" d="m393.5118 117.73097c47.39502 -119.99213 232.23557 0 0 154.27559c-232.23557 -154.27559 -47.39502 -274.26773 0 -154.27559z" fill-rule="evenodd"/><path stroke="#a64d79" stroke-width="3.0" stroke-linejoin="round" stroke-linecap="butt" d="m393.5118 117.73097c47.39502 -119.99213 232.23557 0 0 154.27559c-232.23557 -154.27559 -47.39502 -274.26773 0 -154.27559z" fill-rule="evenodd"/><path fill="#000000" fill-opacity="0.0" d="m319.8056 146.22868l37.228363 97.16536" fill-rule="evenodd"/><path stroke="#000000" stroke-width="2.0" stroke-linejoin="round" stroke-linecap="butt" d="m324.099 157.43434l32.934967 85.9597" fill-rule="evenodd"/><path fill="#000000" stroke="#000000" stroke-width="2.0" stroke-linecap="butt" d="m327.18378 156.25243l-6.3320923 -7.2934723l0.1625061 9.657318z" fill-rule="evenodd"/><path fill="#000000" fill-opacity="0.0" d="m480.0008 196.26955l-122.897644 47.181107" fill-rule="evenodd"/><path stroke="#000000" stroke-width="2.0" stroke-linejoin="round" stroke-linecap="butt" d="m468.79797 200.57036l-111.694824 42.88028" fill-rule="evenodd"/><path fill="#000000" stroke="#000000" stroke-width="2.0" stroke-linecap="butt" d="m469.98193 203.65437l7.289276 -6.3369293l-9.657196 0.1689148z" fill-rule="evenodd"/><path fill="#000000" fill-opacity="0.0" d="m358.27036 241.94226c5.084839 -3.7769012 20.775574 -12.492126 30.509186 -22.661423c9.733582 -10.169296 22.807953 -24.988617 27.892365 -38.354324c5.084442 -13.365707 -8.717407 -24.987762 2.6141968 -41.839905c11.3315735 -16.852135 54.47943 -49.394135 65.375305 -59.272957" fill-rule="evenodd"/><path stroke="#000000" stroke-width="2.0" stroke-linejoin="round" stroke-linecap="butt" d="m358.27036 241.94226c5.084839 -3.7769012 20.775574 -12.492126 30.509186 -22.661423c9.733582 -10.169296 22.807953 -24.988617 27.892365 -38.354324c5.084442 -13.365707 -8.717407 -24.987762 2.6141968 -41.839905c11.3315735 -16.852135 54.47943 -49.394135 65.375305 -59.272957" fill-rule="evenodd"/><path fill="#cc0000" d="m357.03412 201.93964l0 0c0 -3.131073 2.5382385 -5.6692963 5.669281 -5.6692963l0 0c1.5036011 0 2.9456177 0.5973053 4.0088196 1.660492c1.0631714 1.0632019 1.660492 2.5052185 1.660492 4.0088043l0 0c0 3.1310577 -2.5382385 5.669281 -5.6693115 5.669281l0 0c-3.1310425 0 -5.669281 -2.5382233 -5.669281 -5.669281z" fill-rule="evenodd"/><path stroke="#000000" stroke-width="1.0" stroke-linejoin="round" stroke-linecap="butt" d="m357.03412 201.93964l0 0c0 -3.131073 2.5382385 -5.6692963 5.669281 -5.6692963l0 0c1.5036011 0 2.9456177 0.5973053 4.0088196 1.660492c1.0631714 1.0632019 1.660492 2.5052185 1.660492 4.0088043l0 0c0 3.1310577 -2.5382385 5.669281 -5.6693115 5.669281l0 0c-3.1310425 0 -5.669281 -2.5382233 -5.669281 -5.669281z" fill-rule="evenodd"/><path fill="#cc0000" d="m372.8294 184.28871l0 0c0 -3.1310577 2.538208 -5.6692963 5.669281 -5.6692963l0 0c1.5036011 0 2.9455872 0.5973053 4.008789 1.6605072c1.0632019 1.0632019 1.660492 2.5052032 1.660492 4.008789l0 0c0 3.131073 -2.538208 5.6692963 -5.669281 5.6692963l0 0c-3.131073 0 -5.669281 -2.5382233 -5.669281 -5.6692963z" fill-rule="evenodd"/><path stroke="#000000" stroke-width="1.0" stroke-linejoin="round" stroke-linecap="butt" d="m372.8294 184.28871l0 0c0 -3.1310577 2.538208 -5.6692963 5.669281 -5.6692963l0 0c1.5036011 0 2.9455872 0.5973053 4.008789 1.6605072c1.0632019 1.0632019 1.660492 2.5052032 1.660492 4.008789l0 0c0 3.131073 -2.538208 5.6692963 -5.669281 5.6692963l0 0c-3.131073 0 -5.669281 -2.5382233 -5.669281 -5.6692963z" fill-rule="evenodd"/><path fill="#cc0000" d="m378.0656 166.6378l0 0c0 -3.131073 2.5382385 -5.6692963 5.669281 -5.6692963l0 0c1.5036011 0 2.9456177 0.59729004 4.0088196 1.660492c1.0632019 1.0632019 1.660492 2.5052032 1.660492 4.0088043l0 0c0 3.1310577 -2.5382385 5.669281 -5.6693115 5.669281l0 0c-3.1310425 0 -5.669281 -2.5382233 -5.669281 -5.669281z" fill-rule="evenodd"/><path stroke="#000000" stroke-width="1.0" stroke-linejoin="round" stroke-linecap="butt" d="m378.0656 166.6378l0 0c0 -3.131073 2.5382385 -5.6692963 5.669281 -5.6692963l0 0c1.5036011 0 2.9456177 0.59729004 4.0088196 1.660492c1.0632019 1.0632019 1.660492 2.5052032 1.660492 4.0088043l0 0c0 3.1310577 -2.5382385 5.669281 -5.6693115 5.669281l0 0c-3.1310425 0 -5.669281 -2.5382233 -5.669281 -5.669281z" fill-rule="evenodd"/><path fill="#cc0000" d="m378.0656 211.06299l0 0c0 -3.1310577 2.5382385 -5.669281 5.669281 -5.669281l0 0c1.5036011 0 2.9456177 0.59729004 4.0088196 1.660492c1.0632019 1.0632019 1.660492 2.5052032 1.660492 4.008789l0 0c0 3.131073 -2.5382385 5.6692963 -5.6693115 5.6692963l0 0c-3.1310425 0 -5.669281 -2.5382233 -5.669281 -5.6692963z" fill-rule="evenodd"/><path stroke="#000000" stroke-width="1.0" stroke-linejoin="round" stroke-linecap="butt" d="m378.0656 211.06299l0 0c0 -3.1310577 2.5382385 -5.669281 5.669281 -5.669281l0 0c1.5036011 0 2.9456177 0.59729004 4.0088196 1.660492c1.0632019 1.0632019 1.660492 2.5052032 1.660492 4.008789l0 0c0 3.131073 -2.5382385 5.6692963 -5.6693115 5.6692963l0 0c-3.1310425 0 -5.669281 -2.5382233 -5.669281 -5.6692963z" fill-rule="evenodd"/><path fill="#cc0000" d="m440.00525 95.44095l0 0c0 -3.1310654 2.5382385 -5.6692963 5.669281 -5.6692963l0 0c1.5036011 0 2.9456177 0.59729767 4.0088196 1.6604996c1.0631714 1.0631943 1.660492 2.5052032 1.660492 4.0087967l0 0c0 3.1310577 -2.5382385 5.6692886 -5.6693115 5.6692886l0 0c-3.1310425 0 -5.669281 -2.538231 -5.669281 -5.6692886z" fill-rule="evenodd"/><path stroke="#000000" stroke-width="1.0" stroke-linejoin="round" stroke-linecap="butt" d="m440.00525 95.44095l0 0c0 -3.1310654 2.5382385 -5.6692963 5.669281 -5.6692963l0 0c1.5036011 0 2.9456177 0.59729767 4.0088196 1.6604996c1.0631714 1.0631943 1.660492 2.5052032 1.660492 4.0087967l0 0c0 3.1310577 -2.5382385 5.6692886 -5.6693115 5.6692886l0 0c-3.1310425 0 -5.669281 -2.538231 -5.669281 -5.6692886z" fill-rule="evenodd"/><path fill="#cc0000" d="m399.96326 178.75066l0 0c0 -3.1310577 2.5382385 -5.6692963 5.669281 -5.6692963l0 0c1.5036011 0 2.9456177 0.5973053 4.008789 1.6605072c1.0632019 1.0631866 1.6605225 2.5052032 1.6605225 4.008789l0 0c0 3.1310577 -2.5382385 5.6692963 -5.6693115 5.6692963l0 0c-3.1310425 0 -5.669281 -2.5382385 -5.669281 -5.6692963z" fill-rule="evenodd"/><path stroke="#000000" stroke-width="1.0" stroke-linejoin="round" stroke-linecap="butt" d="m399.96326 178.75066l0 0c0 -3.1310577 2.5382385 -5.6692963 5.669281 -5.6692963l0 0c1.5036011 0 2.9456177 0.5973053 4.008789 1.6605072c1.0632019 1.0631866 1.6605225 2.5052032 1.6605225 4.008789l0 0c0 3.1310577 -2.5382385 5.6692963 -5.6693115 5.6692963l0 0c-3.1310425 0 -5.669281 -2.5382385 -5.669281 -5.6692963z" fill-rule="evenodd"/><path fill="#cc0000" d="m387.84253 144.28346l0 0c0 -3.1310577 2.538208 -5.6692963 5.669281 -5.6692963l0 0c1.5036011 0 2.9455872 0.5973053 4.008789 1.6605072c1.0632019 1.0632019 1.660492 2.5052032 1.660492 4.008789l0 0c0 3.1310577 -2.538208 5.6692963 -5.669281 5.6692963l0 0c-3.131073 0 -5.669281 -2.5382385 -5.669281 -5.6692963z" fill-rule="evenodd"/><path stroke="#000000" stroke-width="1.0" stroke-linejoin="round" stroke-linecap="butt" d="m387.84253 144.28346l0 0c0 -3.1310577 2.538208 -5.6692963 5.669281 -5.6692963l0 0c1.5036011 0 2.9455872 0.5973053 4.008789 1.6605072c1.0632019 1.0632019 1.660492 2.5052032 1.660492 4.008789l0 0c0 3.1310577 -2.538208 5.6692963 -5.669281 5.6692963l0 0c-3.131073 0 -5.669281 -2.5382385 -5.669281 -5.6692963z" fill-rule="evenodd"/><path fill="#cc0000" d="m404.8294 127.1601l0 0c0 -3.1310577 2.538208 -5.6692886 5.669281 -5.6692886l0 0c1.5036011 0 2.9455872 0.59729767 4.008789 1.6604996c1.0632019 1.0631943 1.660492 2.5052032 1.660492 4.008789l0 0c0 3.1310654 -2.538208 5.6692886 -5.669281 5.6692886l0 0c-3.131073 0 -5.669281 -2.5382233 -5.669281 -5.6692886z" fill-rule="evenodd"/><path stroke="#000000" stroke-width="1.0" stroke-linejoin="round" stroke-linecap="butt" d="m404.8294 127.1601l0 0c0 -3.1310577 2.538208 -5.6692886 5.669281 -5.6692886l0 0c1.5036011 0 2.9455872 0.59729767 4.008789 1.6604996c1.0632019 1.0631943 1.660492 2.5052032 1.660492 4.008789l0 0c0 3.1310654 -2.538208 5.6692886 -5.669281 5.6692886l0 0c-3.131073 0 -5.669281 -2.5382233 -5.669281 -5.6692886z" fill-rule="evenodd"/><path fill="#cc0000" d="m421.70078 115.821526l0 0c0 -3.1310654 2.5382385 -5.6692963 5.6693115 -5.6692963l0 0c1.5035706 0 2.9455872 0.59729767 4.008789 1.6604996c1.0632019 1.0631943 1.660492 2.5052032 1.660492 4.0087967l0 0c0 3.1310577 -2.5382385 5.6692886 -5.669281 5.6692886l0 0c-3.131073 0 -5.6693115 -2.538231 -5.6693115 -5.6692886z" fill-rule="evenodd"/><path stroke="#000000" stroke-width="1.0" stroke-linejoin="round" stroke-linecap="butt" d="m421.70078 115.821526l0 0c0 -3.1310654 2.5382385 -5.6692963 5.6693115 -5.6692963l0 0c1.5035706 0 2.9455872 0.59729767 4.008789 1.6604996c1.0632019 1.0631943 1.660492 2.5052032 1.660492 4.0087967l0 0c0 3.1310577 -2.5382385 5.6692886 -5.669281 5.6692886l0 0c-3.131073 0 -5.6693115 -2.538231 -5.6693115 -5.6692886z" fill-rule="evenodd"/><path fill="#cc0000" d="m399.96326 155.56168l0 0c0 -3.1310577 2.5382385 -5.669281 5.669281 -5.669281l0 0c1.5036011 0 2.9456177 0.59729004 4.008789 1.660492c1.0632019 1.0632019 1.6605225 2.5052032 1.6605225 4.008789l0 0c0 3.131073 -2.5382385 5.6692963 -5.6693115 5.6692963l0 0c-3.1310425 0 -5.669281 -2.5382233 -5.669281 -5.6692963z" fill-rule="evenodd"/><path stroke="#000000" stroke-width="1.0" stroke-linejoin="round" stroke-linecap="butt" d="m399.96326 155.56168l0 0c0 -3.1310577 2.5382385 -5.669281 5.669281 -5.669281l0 0c1.5036011 0 2.9456177 0.59729004 4.008789 1.660492c1.0632019 1.0632019 1.6605225 2.5052032 1.6605225 4.008789l0 0c0 3.131073 -2.5382385 5.6692963 -5.6693115 5.6692963l0 0c-3.1310425 0 -5.669281 -2.5382233 -5.669281 -5.6692963z" fill-rule="evenodd"/><path fill="#38761d" d="m466.35696 123.40157l5.669281 -11.338577l5.669281 11.338577z" fill-rule="evenodd"/><path stroke="#000000" stroke-width="1.0" stroke-linejoin="round" stroke-linecap="butt" d="m466.35696 123.40157l5.669281 -11.338577l5.669281 11.338577z" fill-rule="evenodd"/><path fill="#38761d" d="m446.6168 132.82939l5.6693115 -11.338577l5.669281 11.338577z" fill-rule="evenodd"/><path stroke="#000000" stroke-width="1.0" stroke-linejoin="round" stroke-linecap="butt" d="m446.6168 132.82939l5.6693115 -11.338577l5.669281 11.338577z" fill-rule="evenodd"/><path fill="#38761d" d="m462.6168 148.82939l5.6693115 -11.338577l5.669281 11.338577z" fill-rule="evenodd"/><path stroke="#000000" stroke-width="1.0" stroke-linejoin="round" stroke-linecap="butt" d="m462.6168 148.82939l5.6693115 -11.338577l5.669281 11.338577z" fill-rule="evenodd"/><path fill="#38761d" d="m425.22964 153.49869l5.6693115 -11.338577l5.669281 11.338577z" fill-rule="evenodd"/><path stroke="#000000" stroke-width="1.0" stroke-linejoin="round" stroke-linecap="butt" d="m425.22964 153.49869l5.6693115 -11.338577l5.669281 11.338577z" fill-rule="evenodd"/><path fill="#38761d" d="m433.03806 180.5538l5.669281 -11.338577l5.6693115 11.338577z" fill-rule="evenodd"/><path stroke="#000000" stroke-width="1.0" stroke-linejoin="round" stroke-linecap="butt" d="m433.03806 180.5538l5.669281 -11.338577l5.6693115 11.338577z" fill-rule="evenodd"/><path fill="#38761d" d="m415.7953 200.48032l5.669281 -11.338577l5.669281 11.338577z" fill-rule="evenodd"/><path stroke="#000000" stroke-width="1.0" stroke-linejoin="round" stroke-linecap="butt" d="m415.7953 200.48032l5.669281 -11.338577l5.669281 11.338577z" fill-rule="evenodd"/><path fill="#38761d" d="m440.00525 194.08136l5.669281 -11.338577l5.6693115 11.338577z" fill-rule="evenodd"/><path stroke="#000000" stroke-width="1.0" stroke-linejoin="round" stroke-linecap="butt" d="m440.00525 194.08136l5.669281 -11.338577l5.6693115 11.338577z" fill-rule="evenodd"/><path fill="#38761d" d="m446.6168 163.45538l5.6693115 -11.338593l5.669281 11.338593z" fill-rule="evenodd"/><path stroke="#000000" stroke-width="1.0" stroke-linejoin="round" stroke-linecap="butt" d="m446.6168 163.45538l5.6693115 -11.338593l5.669281 11.338593z" fill-rule="evenodd"/><path fill="#38761d" d="m407.0971 216.73228l5.6693115 -11.338577l5.669281 11.338577z" fill-rule="evenodd"/><path stroke="#000000" stroke-width="1.0" stroke-linejoin="round" stroke-linecap="butt" d="m407.0971 216.73228l5.6693115 -11.338577l5.669281 11.338577z" fill-rule="evenodd"/></g></svg>